HIERARCHY
ROOT hip
{
  OFFSET 0 0 0
  CHANNELS 6 Xposition Yposition Zposition Zrotation Yrotation Xrotation
  JOINT abdomen
  {
    OFFSET 0 20.6881 -0.73152
    CHANNELS 3 Zrotation Xrotation Yrotation
    JOINT chest
    {
      OFFSET 0 11.7043 -0.48768
      CHANNELS 3 Zrotation Xrotation Yrotation
      JOINT neck
      {
        OFFSET 0 22.1894 -2.19456
        CHANNELS 3 Zrotation Xrotation Yrotation
        JOINT head
        {
          OFFSET -0.24384 7.07133 1.2192
          CHANNELS 3 Zrotation Xrotation Yrotation
          JOINT leftEye
          {
            OFFSET 4.14528 8.04674 8.04672
            CHANNELS 3 Zrotation Xrotation Yrotation
            End Site
            {
              OFFSET 1 0 0
            }
          }
          JOINT rightEye
          {
            OFFSET -3.6576 8.04674 8.04672
            CHANNELS 3 Zrotation Xrotation Yrotation
            End Site
            {
              OFFSET 1 0 0
            }
          }
        }
      }
      JOINT rCollar
      {
        OFFSET -2.68224 19.2634 -4.8768
        CHANNELS 3 Zrotation Xrotation Yrotation
        JOINT rShldr
        {
          OFFSET -8.77824 -1.95073 1.46304
          CHANNELS 3 Zrotation Xrotation Yrotation
          JOINT rForeArm
          {
            OFFSET -28.1742 -1.7115 0.48768
            CHANNELS 3 Zrotation Xrotation Yrotation
            JOINT rHand
            {
              OFFSET -22.5879 0.773209 7.07136
              CHANNELS 3 Zrotation Xrotation Yrotation
              JOINT rThumb1
              {
                OFFSET -1.2192 -0.487915 3.41376
                CHANNELS 3 Zrotation Xrotation Yrotation
                JOINT rThumb2
                {
                  OFFSET -3.37035 -0.52449 3.41376
                  CHANNELS 3 Zrotation Xrotation Yrotation
                  End Site
                  {
                    OFFSET -1.78271 -1.18214 1.43049
                  }
                }
              }
              JOINT rIndex1
              {
                OFFSET -7.75947 0.938293 5.60832
                CHANNELS 3 Zrotation Xrotation Yrotation
                JOINT rIndex2
                {
                  OFFSET -2.54057 -0.884171 1.56538
                  CHANNELS 3 Zrotation Xrotation Yrotation
                  End Site
                  {
                    OFFSET -1.62519 -0.234802 1.16502
                  }
                }
              }
              JOINT rMid1
              {
                OFFSET -8.24714 1.18213 3.41376
                CHANNELS 3 Zrotation Xrotation Yrotation
                JOINT rMid2
                {
                  OFFSET -3.10165 -0.590103 1.0647
                  CHANNELS 3 Zrotation Xrotation Yrotation
                  End Site
                  {
                    OFFSET -2.48547 -0.328903 0.83742
                  }
                }
              }
              JOINT rRing1
              {
                OFFSET -8.82822 0.546677 1.51678
                CHANNELS 3 Zrotation Xrotation Yrotation
                JOINT rRing2
                {
                  OFFSET -2.60934 -0.819778 -0.0198488
                  CHANNELS 3 Zrotation Xrotation Yrotation
                  End Site
                  {
                    OFFSET -2.33842 -0.294052 0.168128
                  }
                }
              }
              JOINT rPinky1
              {
                OFFSET -8.27202 -0.0477905 -0.4584
                CHANNELS 3 Zrotation Xrotation Yrotation
                JOINT rPinky2
                {
                  OFFSET -1.82734 -0.647385 -0.700984
                  CHANNELS 3 Zrotation Xrotation Yrotation
                  End Site
                  {
                    OFFSET -1.69225 -0.51767 -0.607171
                  }
                }
              }
            }
          }
        }
      }
      JOINT lCollar
      {
        OFFSET 2.68224 19.2634 -4.8768
        CHANNELS 3 Zrotation Xrotation Yrotation
        JOINT lShldr
        {
          OFFSET 8.77824 -1.95073 1.46304
          CHANNELS 3 Zrotation Xrotation Yrotation
          JOINT lForeArm
          {
            OFFSET 28.1742 -1.7115 0.48768
            CHANNELS 3 Zrotation Xrotation Yrotation
            JOINT lHand
            {
              OFFSET 22.5879 0.773209 7.07136
              CHANNELS 3 Zrotation Xrotation Yrotation
              JOINT lThumb1
              {
                OFFSET 1.2192 -0.487915 3.41376
                CHANNELS 3 Zrotation Xrotation Yrotation
                JOINT lThumb2
                {
                  OFFSET 3.37035 -0.52449 3.41376
                  CHANNELS 3 Zrotation Xrotation Yrotation
                  End Site
                  {
                    OFFSET 1.78271 -1.18214 1.43049
                  }
                }
              }
              JOINT lIndex1
              {
                OFFSET 7.75947 0.938293 5.60832
                CHANNELS 3 Zrotation Xrotation Yrotation
                JOINT lIndex2
                {
                  OFFSET 2.54057 -0.884171 1.56538
                  CHANNELS 3 Zrotation Xrotation Yrotation
                  End Site
                  {
                    OFFSET 1.62519 -0.234802 1.16502
                  }
                }
              }
              JOINT lMid1
              {
                OFFSET 8.24714 1.18213 3.41376
                CHANNELS 3 Zrotation Xrotation Yrotation
                JOINT lMid2
                {
                  OFFSET 3.10165 -0.590103 1.0647
                  CHANNELS 3 Zrotation Xrotation Yrotation
                  End Site
                  {
                    OFFSET 2.48547 -0.328903 0.83742
                  }
                }
              }
              JOINT lRing1
              {
                OFFSET 8.82822 0.546677 1.51678
                CHANNELS 3 Zrotation Xrotation Yrotation
                JOINT lRing2
                {
                  OFFSET 2.60934 -0.819778 -0.0198488
                  CHANNELS 3 Zrotation Xrotation Yrotation
                  End Site
                  {
                    OFFSET 2.33842 -0.294052 0.168128
                  }
                }
              }
              JOINT lPinky1
              {
                OFFSET 8.27202 -0.0477905 -0.4584
                CHANNELS 3 Zrotation Xrotation Yrotation
                JOINT lPinky2
                {
                  OFFSET 1.82734 -0.647385 -0.700984
                  CHANNELS 3 Zrotation Xrotation Yrotation
                  End Site
                  {
                    OFFSET 1.69225 -0.51767 -0.607171
                  }
                }
              }
            }
          }
        }
      }
    }
  }
  JOINT rButtock
  {
    OFFSET -8.77824 4.35084 1.2192
    CHANNELS 3 Zrotation Xrotation Yrotation
    JOINT rThigh
    {
      OFFSET 0 -1.70687 -2.19456
      CHANNELS 3 Zrotation Xrotation Yrotation
      JOINT rShin
      {
        OFFSET 0 -36.8199 0.73152
        CHANNELS 3 Zrotation Xrotation Yrotation
        JOINT rFoot
        {
          OFFSET 0.73152 -45.1104 -5.12064
          CHANNELS 3 Zrotation Xrotation Yrotation
          End Site
          {
            OFFSET -1.1221 -3.69964 12.103
          }
        }
      }
    }
  }
  JOINT lButtock
  {
    OFFSET 8.77824 4.35084 1.2192
    CHANNELS 3 Zrotation Xrotation Yrotation
    JOINT lThigh
    {
      OFFSET 0 -1.70687 -2.19456
      CHANNELS 3 Zrotation Xrotation Yrotation
      JOINT lShin
      {
        OFFSET 0 -36.8199 0.73152
        CHANNELS 3 Zrotation Xrotation Yrotation
        JOINT lFoot
        {
          OFFSET -0.73152 -45.1104 -5.12064
          CHANNELS 3 Zrotation Xrotation Yrotation
          End Site
          {
            OFFSET 1.1221 -3.69964 12.103
          }
        }
      }
    }
  }
}
MOTION
Frames:	4
Frame Time:	0.03333
53.4516 60.91839999999999 77.7607 161.440004 -51.607378 -157.082654 -18.50296 7.771409 1.800185 5.646298 -10.704322 -4.978875 -8.2648 32.95837 -142.031513 26.523401 36.421779 111.968854 0.002535 0.0 0.002423 0.002404 -0.0 -0.000371 -153.593774 -75.693605 -178.26325 -40.945963 -24.596405 -48.167701 -177.356126 31.077501 -138.740621 -9.213784 41.57045 3.715112 -169.572148 -7.253934 89.929139 -10.679633 -46.535264 6.219414 7.368525 -12.803061 -3.564405 19.014635 -8.588778 -1.664097 -169.125692 -33.356965 145.376953 -167.521277 -17.341144 143.853044 -8e-05 0.063591 0.021687 11.036856 -12.237046 -1.536528 -85.999529 -50.496415 -84.37115 -93.588853 -50.907682 -93.82765 -3.927719 -36.415239 7.021545 -63.224302 -1.46387 29.758733 102.480566 50.927435 -100.877227 -16.944557 -27.082227 -12.304528 -2.999166 -2.98229 0.384337 -23.628007 -42.850556 18.48237 -37.214524 -57.918227 0.644008 -32.316524 -25.359716 4.053552 160.673391 -6.66763 -143.245844 -29.965114 -60.066597 -7.101293 145.100516 -1.522192 178.650165 -12.047212 29.596413 5.639835 152.200967 37.329828 147.583057 -21.836791 58.125983 -6.163514 0.00515 -0.001068 0.002575 -56.004499 -63.398199 -147.295623 -87.049078 -14.326598 -55.280225 118.752902 -9.668758 -164.648954 0.007009 0.000687 0.003505 1.478877 6.412062 -180.0 2.080853 -42.061338 -41.152302 -173.898231 6.02907 87.508415
53.579600000000006 60.87479999999999 77.4684 161.692992 -51.799449 -157.187488 -15.702095 4.990747 -94.5391 7.562404 3.824317 90.123487 -12.734546 29.198807 -107.092099 36.541726 19.701592 79.708151 -0.001483 0.0 -0.002195 -0.001368 -0.0 0.000572 -157.323891 -17.488837 164.609068 142.883547 -26.562875 -179.293416 175.81811 46.281454 108.21674 159.329949 -31.172505 141.308296 27.45086 -26.09915 2.26805 -10.174489 1.121207 -9.318143 -2.687376 4.226349 1.584262 -178.238999 -34.217053 106.373679 0.540986 -1.590135 -0.292986 -170.986585 -28.290204 144.249063 -0.05842 -3.427984 -1.079782 -155.834303 -13.752166 173.494109 -85.999459 -50.498019 -84.371482 -145.458415 8.722852 -141.933009 142.973392 39.431336 -147.389416 -147.51254 13.393084 -130.377455 -103.092352 -53.753228 -62.439772 -174.09241 14.71975 -152.114081 169.150266 -6.829937 -89.916044 103.248873 11.892043 -44.09675 46.207975 39.65419 -36.31699 155.229891 3.161089 -110.776295 -17.123499 -49.945899 2.059712 83.359084 64.274445 -75.171163 67.609398 -72.073411 84.37483 -13.733211 -26.197072 8.031012 139.796352 -3.003053 136.927441 76.040245 -52.97099 75.969008 7.8e-05 0.001053 -0.0001 -58.512116 -63.412299 118.711161 67.018601 -69.110427 168.521789 109.01653 -76.222104 -153.167933 179.996177 75.749945 0.002616 -173.385608 82.963925 92.93672 42.094965 -3.518516 63.027094 146.125946 68.099336 112.393415
53.6529 60.743199999999995 77.2208 161.649853 -51.885411 -157.161774 -18.296105 7.334136 -0.0 5.54214 -10.183866 -3.522573 7.706512 22.42418 89.189797 -32.865582 10.37903 -109.895179 0.000929 -0.0 -0.003287 0.001571 -0.0 -0.001078 -9.651717 34.836261 11.198772 -120.838633 -18.675622 148.806322 8.779539 -39.786861 -72.374371 157.691324 -33.996916 140.131155 -171.652948 -9.336365 89.950316 178.001718 -18.054707 94.981744 88.79245 -75.498651 40.049862 -82.365168 52.801502 69.048288 23.899672 -61.334588 1.395494 2.49622 1.617975 0.309658 -145.120538 0.267275 -179.213419 11.133393 63.03232 -0.740387 -1.205052 -3.047289 -1.115921 -147.693074 13.067643 -144.026887 149.90494 22.421538 -154.97476 165.323399 55.821564 -107.094217 141.115347 -3.174435 -153.152274 -33.386258 -49.181734 -25.942105 -78.93782 -49.642549 -30.622659 75.251632 37.985036 -38.643425 -10.746076 -19.048223 4.72578 9.552839 28.036644 -9.117963 -23.903824 -61.333822 -1.400091 169.037888 -21.889125 -144.205827 74.840582 72.960074 -92.828323 -3.307832 44.983876 -2.481113 146.225856 15.470222 142.748091 -73.195914 84.126819 35.142344 -179.998958 75.74839 0.0 158.895472 1.283835 -93.322347 -77.370751 -15.417868 47.894904 -167.825536 -46.587732 -44.156413 179.981284 75.750476 0.012806 -164.646544 81.881349 164.49855 10.432 -42.232228 21.42406 146.804508 21.811 141.931765
53.8022 60.62070000000001 76.9825 161.136592 -51.853828 -156.820993 -18.812267 7.226752 1.64778 5.247749 -10.280404 -5.008712 0.954829 14.908345 32.69023 -17.241324 -18.066207 -58.454981 -0.001836 0.0 -0.001664 0.00381 -0.0 -0.005051 0.133031 -0.807236 -0.177905 61.996237 -13.767464 -2.127527 90.049716 -28.462615 57.152718 -174.267687 42.998421 148.176879 93.027812 -51.08358 40.501773 -22.711314 -20.508632 -20.962451 -39.690548 37.27933 30.591585 -0.99404 11.577789 0.308413 -0.40012 1.151153 0.223672 -167.307149 -17.311481 144.230323 -0.060785 -3.429749 -1.079966 -147.879121 -76.785696 -171.028416 -162.358774 72.064001 -150.906192 -156.39517 37.622862 -146.727918 143.157345 39.098049 -147.586146 72.68599 14.755807 -47.384143 -175.12494 24.846268 156.376139 14.261295 55.973532 -7.425973 -11.509391 -11.486902 0.621119 125.783078 -10.349725 -113.387457 140.164487 2.326523 -115.878272 154.506989 2.699117 -117.665901 170.283043 -36.723107 -145.339734 42.548208 58.282798 -36.538276 145.119299 0.18519 179.187013 -10.201902 -0.130728 9.015069 163.642976 74.57454 150.513807 -5.761398 12.232111 -1.892674 179.997033 75.74951 0.003062 157.528695 2.280518 -0.0 -10.007272 83.902874 137.828493 -110.582224 -40.047313 167.696452 0.000969 0.000132 -0.0 2.280676 8.875783 -0.307282 1.188164 32.030672 61.277742 15.724968 -26.31822 -24.029866
